<?xml version="1.0" encoding="UTF-8" standalone="no"?>
<!DOCTYPE svg PUBLIC "-//W3C//DTD SVG 1.1//EN" "http://www.w3.org/Graphics/SVG/1.1/DTD/svg11.dtd">
<svg width="100%" height="100%" viewBox="0 0 606 590" version="1.1" xmlns="http://www.w3.org/2000/svg" xmlns:xlink="http://www.w3.org/1999/xlink" xml:space="preserve" xmlns:serif="http://www.serif.com/" style="fill-rule:evenodd;clip-rule:evenodd;stroke-linejoin:round;stroke-miterlimit:2;">
    <g transform="matrix(1,0,0,1,-4286,-2048)">
        <g id="Icon-Color" serif:id="Icon Color" transform="matrix(1,0,0,1,5131.15,1075.82)">
            <rect x="-845.145" y="972.181" width="605.17" height="589.725" style="fill:none;"/>
            <clipPath id="_clip1">
                <rect x="-845.145" y="972.181" width="605.17" height="589.725"/>
            </clipPath>
            <g clip-path="url(#_clip1)">
                <g transform="matrix(1.06886,-4.78641e-18,4.78641e-18,-1.10795,-1363.48,2064.95)">
                    <path d="M768.829,944.753L811.623,978.33C856.358,1013.43 1051.92,922.065 1051.92,865.203L768.829,643.085L485.738,865.203C485.738,922.065 681.3,1013.43 726.035,978.33L768.829,944.753ZM595.063,613.52L569.249,637.193C542.334,661.874 485.738,827.999 485.738,827.999L565.738,765.229L595.063,613.52ZM696.972,514.771L663.172,543.138C628.34,572.369 596.747,741.708 596.747,741.708L691.914,667.038L696.972,514.771ZM721.246,643.47L768.829,606.135L816.412,643.47C816.412,643.47 805.062,482.298 785.795,467.181L768.829,453.868L751.862,467.181C732.596,482.298 721.246,643.47 721.246,643.47ZM942.595,612.761L971.92,764.47L1051.92,827.24C1051.92,827.24 995.324,661.115 968.409,636.434L942.595,612.761ZM840.685,514.771L845.744,667.038L940.911,741.708C940.911,741.708 909.318,572.369 874.486,543.138L840.685,514.771Z" style="fill:url(#_Linear2);"/>
                </g>
            </g>
        </g>
    </g>
    <defs>
        <linearGradient id="_Linear2" x1="0" y1="0" x2="1" y2="0" gradientUnits="userSpaceOnUse" gradientTransform="matrix(566.181,0,0,535.807,485.738,721.772)"><stop offset="0" style="stop-color:rgb(221,46,68);stop-opacity:1"/><stop offset="1" style="stop-color:rgb(160,2,125);stop-opacity:1"/></linearGradient>
    </defs>
</svg>
