<?xml version="1.0" encoding="UTF-8" standalone="no"?>
<!DOCTYPE svg PUBLIC "-//W3C//DTD SVG 1.1//EN" "http://www.w3.org/Graphics/SVG/1.1/DTD/svg11.dtd">
<svg width="100%" height="100%" viewBox="0 0 64 64" version="1.1" xmlns="http://www.w3.org/2000/svg" xmlns:xlink="http://www.w3.org/1999/xlink" xml:space="preserve" xmlns:serif="http://www.serif.com/" style="fill-rule:evenodd;clip-rule:evenodd;stroke-linejoin:round;stroke-miterlimit:2;">
    <circle cx="32" cy="32" r="32" style="fill:rgb(230,25,94);"/>
    <g transform="matrix(0.46344,0,0,0.470292,2.153,1.47915)">
        <path d="M107.456,47.58C107.513,52.837 105.567,57.923 102.016,61.8C101.718,62.123 101.585,62.566 101.656,63C103.988,76.104 100.552,86.88 93.48,94.56C86.052,102.62 75.156,106.632 64.584,106.852L64.204,106.852C53.636,106.632 42.74,102.616 35.308,94.556C28.24,86.88 24.804,76.104 27.132,63C27.201,62.566 27.069,62.124 26.772,61.8C21.061,55.554 19.725,46.41 23.412,38.792C27.144,31.072 36.584,25.044 46.248,27.06C46.568,27.127 46.957,27.227 47.416,27.36C48.852,27.784 50.176,28.508 51.336,29.44C53.92,31.5 58.664,32.88 64.088,32.88L64.704,32.88C70.128,32.88 74.872,31.504 77.452,29.44C78.616,28.512 79.94,27.784 81.372,27.36C81.759,27.245 82.15,27.145 82.544,27.06C92.208,25.048 101.648,31.076 105.38,38.792C106.713,41.532 107.422,44.533 107.456,47.58M44.032,39.768C45.27,40 46.454,40.464 47.52,41.136C49.3,42.256 48.9,44.704 47.196,45.928L38.476,52.164C36.772,53.388 34.284,53.004 33.748,50.992C33.427,49.793 33.341,48.543 33.496,47.312C33.652,46.103 34.049,44.937 34.664,43.884C35.273,42.846 36.095,41.949 37.076,41.252C38.064,40.556 39.182,40.066 40.364,39.812C41.571,39.551 42.819,39.536 44.032,39.768M91.12,41.248C93.105,42.681 94.405,44.878 94.704,47.308C94.861,48.539 94.776,49.79 94.452,50.988C93.912,53.004 91.428,53.388 89.72,52.164L81.004,45.928C79.296,44.704 78.896,42.256 80.676,41.136C81.742,40.464 82.926,40 84.164,39.768C85.377,39.535 86.624,39.549 87.832,39.808C89.015,40.057 90.135,40.547 91.12,41.248M67.632,77.6C65.533,76.895 63.259,76.895 61.16,77.6C60,77.996 58.992,78.608 59.056,79.528C59.172,80.94 61.416,83.356 63.036,83.856C64.028,84.156 64.652,84.136 65.756,83.856C67.38,83.44 69.636,80.94 69.74,79.528C69.812,78.608 68.792,77.996 67.632,77.6M54.384,71.172C55.211,71.652 55.935,72.293 56.512,73.056C57.098,73.834 57.528,74.718 57.776,75.66C58.2,77.24 56.648,78.432 55.004,78.244L50.824,77.764L46.668,77.3C45.028,77.112 43.804,75.6 44.572,74.156C45.034,73.296 45.657,72.532 46.408,71.908C47.145,71.292 47.998,70.829 48.916,70.548C50.746,69.991 52.727,70.217 54.384,71.172M82.244,71.76C81.506,71.146 80.653,70.684 79.736,70.4C77.906,69.843 75.925,70.069 74.268,71.024C73.44,71.506 72.717,72.147 72.14,72.912C71.556,73.691 71.127,74.575 70.876,75.516C70.452,77.092 72,78.284 73.636,78.1L77.82,77.62L81.98,77.156C83.628,76.968 84.848,75.456 84.08,74.012C83.611,73.156 82.988,72.392 82.244,71.76" style="fill:white;"/>
    </g>
</svg>
